<svg height="448" viewBox="0 0 416 448" width="416" xmlns="http://www.w3.org/2000/svg"><g transform="translate(0 -604.3622)"><text x="51.231663" y="1009.7125"><tspan x="0" y="0"><tspan dx="0" dy="0"/></tspan></text><text x="82.929802" y="1080.1998"><tspan x="0" y="0"><tspan dx="0" dy="0"/></tspan></text><text transform="scale(1.0089379 .99114132)" x="414.3045" y="1331.0359"><tspan x="0" y="0"><tspan dx="0" dy="0"/></tspan></text><text x="85.308571" y="1087.3585"><tspan x="0" y="0"><tspan dx="0" dy="0"/></tspan></text><text x="83.372887" y="1083.7958"><tspan x="0" y="0"><tspan dx="0" dy="0"/></tspan></text><path d="m207.9993 636.3622c-5.60486 0-11.20917 2.14667-15.50391 6.44141l-33.71484 33.71484 37.76367 37.76172a36 36 0 0 1 11.45508-1.91797 36 36 0 0 1 36 36 36 36 0 0 1 -1.9082 11.46484l50.45312 50.45313a36 36 0 0 1 11.45508-1.91797 36 36 0 0 1 36 36 36 36 0 0 1 -36 36 36 36 0 0 1 -36-36 36 36 0 0 1 1.9082-11.46289l-45.9082-45.9082v121.16992a36 36 0 0 1 20 32.20117 36 36 0 0 1 -36 36 36 36 0 0 1 -36-36 36 36 0 0 1 20-32.23242v-127.56641a36 36 0 0 1 -20-32.20117 36 36 0 0 1 1.9082-11.46289l-37.7539-37.75391-129.7128956 129.71289c-8.5894725 8.58948-8.5894725 22.41834 0 31.00782l186.0546856 186.05469c8.58948 8.5895 22.41834 8.5895 31.00782 0l186.05468-186.05469c8.58948-8.58948 8.58948-22.41834 0-31.00782l-186.05468-186.05468c-4.29474-4.29474-9.89905-6.44141-15.50391-6.44141z"/></g></svg>