<svg width="63" height="63" viewBox="0 0 63 63" fill="none" xmlns="http://www.w3.org/2000/svg">
<path d="M0 0V63H63V0H0ZM34.2844 49.1344C34.2844 55.2656 30.6844 58.0641 25.4391 58.0641C20.7 58.0641 17.9578 55.6172 16.5516 52.65L21.375 49.7391C22.3031 51.3844 23.1469 52.7766 25.1859 52.7766C27.1266 52.7766 28.3641 52.0172 28.3641 49.05V28.9266H34.2844V49.1344ZM48.2906 58.0641C42.7922 58.0641 39.2344 55.4484 37.5047 52.0172L42.3281 49.2328C43.5938 51.3 45.2531 52.8328 48.1641 52.8328C50.6109 52.8328 52.1859 51.6094 52.1859 49.9078C52.1859 47.8828 50.5828 47.1656 47.8687 45.9703L46.3922 45.3375C42.1172 43.5234 39.2906 41.2313 39.2906 36.4078C39.2906 31.9641 42.6797 28.5891 47.9531 28.5891C51.7219 28.5891 54.4219 29.8969 56.3625 33.3281L51.75 36.2812C50.7375 34.4672 49.6406 33.75 47.9391 33.75C46.2094 33.75 45.1125 34.8469 45.1125 36.2812C45.1125 38.0531 46.2094 38.7703 48.7547 39.8813L50.2313 40.5141C55.2656 42.6656 58.0922 44.8734 58.0922 49.8234C58.0922 55.1391 53.9016 58.0641 48.2906 58.0641Z" fill="black"/>
</svg>
