<svg width="51" height="59" viewBox="0 0 51 59" fill="none" xmlns="http://www.w3.org/2000/svg">
<path d="M25.8579 35.1531C24.8508 35.6159 23.7474 36.2189 21.5385 37.4311C20.701 37.9022 19.8258 38.3733 19.0114 38.8172C18.9548 38.7607 18.8962 38.6895 18.8397 38.6309C14.47 33.9618 6.38815 30.6641 6.73153 24.3934C6.85924 22.1091 7.6444 16.1126 22.2525 8.83052C34.2748 2.90521 43.8411 4.54671 45.4931 8.18774C47.8674 13.3781 40.3655 23.0366 27.9496 24.4373C26.5754 24.7161 25.1562 24.6824 23.7968 24.3388C22.4374 23.9953 21.1726 23.3506 20.0959 22.4525C19.4385 21.7385 19.3401 21.6966 19.0972 21.839C18.6973 22.0484 18.9548 22.6953 19.0972 23.0659C19.5708 23.9234 20.2115 24.6772 20.9815 25.2828C21.7514 25.8885 22.635 26.3335 23.5799 26.5918C28.4659 27.6479 33.5602 27.1433 38.1441 25.1492C45.669 22.2368 51.5441 14.1403 49.823 7.35233C48.0956 0.470175 36.6721 -1.79945 25.8642 2.04049C19.0957 4.32141 12.8422 7.91201 7.46015 12.6076C1.50553 18.177 0.56334 23.0178 0.94859 25.0445C2.33465 32.2407 12.2548 36.9245 16.233 40.3938C16.0236 40.509 15.8477 40.6032 15.6907 40.6932C13.7058 41.6794 6.139 45.6345 4.25253 49.8178C2.11062 54.558 4.5959 57.9562 6.2374 58.4126C8.71114 59.0052 11.3082 58.8104 13.6658 57.8554C16.0235 56.9005 18.0241 55.2331 19.3882 53.0861C20.5467 51.3057 21.258 49.2719 21.4618 47.1577C21.6655 45.0434 21.3557 42.9112 20.5587 40.9424C21.0289 40.5673 21.5305 40.2331 22.0578 39.9436C23.0711 39.3448 24.0364 38.7544 24.8927 38.298C27.8248 36.9246 31.0245 36.2174 34.2622 36.2272C41.0586 37.0271 42.4006 41.2669 42.1431 43.0529C42.0226 43.6865 41.7678 44.287 41.3958 44.8139C41.0239 45.3409 40.5433 45.782 39.9866 46.1076C39.5155 46.4071 39.3584 46.5076 39.4003 46.7211C39.4568 47.0352 39.6851 47.0205 40.085 46.964C41.1061 46.6413 42.0057 46.0172 42.6656 45.1738C43.3255 44.3304 43.7149 43.3071 43.7825 42.2384C43.9919 38.0509 39.9991 33.4572 32.9306 33.4991C30.8141 33.5027 28.7187 33.9202 26.7624 34.7281C26.4484 34.8579 26.1434 34.9975 25.8475 35.1469L25.8579 35.1531ZM15.7556 51.5661C13.4985 54.022 10.3579 54.9496 9.00115 54.1644C7.53553 53.3269 8.1155 49.6942 10.8855 47.0959C12.5261 45.6177 14.2993 44.2938 16.1827 43.1408C16.5114 42.9314 16.9972 42.6551 17.5813 42.3033L17.7384 42.2175L18.0817 42.0081C18.5758 43.6645 18.6207 45.4224 18.212 47.1018C17.8033 48.7813 16.9555 50.3219 15.7556 51.5661Z" fill="black"/>
</svg>
